<?xml version="1.0" encoding="iso-8859-1"?><!DOCTYPE svg PUBLIC "-//W3C//DTD SVG 1.1//EN" "http://www.w3.org/Graphics/SVG/1.1/DTD/svg11.dtd"><svg viewBox="0 0 512 512" xmlns="http://www.w3.org/2000/svg" xmlns:xlink="http://www.w3.org/1999/xlink"><style>:root>svg{display:none}:root>svg:target{display:block}</style><svg viewBox="0 0 446.853 446.853" id="cart" xmlns="http://www.w3.org/2000/svg"><path d="M444.274 93.36a14.332 14.332 0 00-11.145-6.123L155.942 75.289c-7.953-.348-14.599 5.792-14.939 13.708-.338 7.913 5.792 14.599 13.707 14.939l258.421 11.14L362.32 273.61H136.205L95.354 51.179a14.336 14.336 0 00-8.861-10.753L19.586 14.141c-7.374-2.887-15.695.735-18.591 8.1-2.891 7.369.73 15.695 8.1 18.591l59.491 23.371 41.572 226.335a14.341 14.341 0 0014.104 11.746h6.896l-15.747 43.74a11.927 11.927 0 001.468 10.916 11.947 11.947 0 009.772 5.078h11.045c-6.844 7.617-11.045 17.646-11.045 28.675 0 23.718 19.299 43.012 43.012 43.012s43.012-19.294 43.012-43.012c0-11.028-4.201-21.058-11.044-28.675h93.777c-6.847 7.617-11.047 17.646-11.047 28.675 0 23.718 19.294 43.012 43.012 43.012 23.719 0 43.012-19.294 43.012-43.012 0-11.028-4.2-21.058-11.042-28.675h13.432c6.6 0 11.948-5.349 11.948-11.947 0-6.6-5.349-11.948-11.948-11.948H143.651l12.902-35.843h216.221a14.332 14.332 0 0013.651-9.96l59.739-186.387a14.306 14.306 0 00-1.89-12.573zm-274.61 316.454c-10.543 0-19.117-8.573-19.117-19.116s8.574-19.117 19.117-19.117 19.116 8.574 19.116 19.117-8.573 19.116-19.116 19.116zm157.709 0c-10.543 0-19.116-8.573-19.116-19.116s8.573-19.117 19.116-19.117 19.116 8.574 19.116 19.117-8.573 19.116-19.116 19.116z"/></svg><svg viewBox="0 0 24 24" id="facebook" xmlns="http://www.w3.org/2000/svg"><path d="M15.997 3.985h2.191V.169C17.81.117 16.51 0 14.996 0c-3.159 0-5.323 1.987-5.323 5.639V9H6.187v4.266h3.486V24h4.274V13.267h3.345l.531-4.266h-3.877V6.062c.001-1.233.333-2.077 2.051-2.077z"/></svg><svg viewBox="0 0 438.536 438.536" id="instagram" xmlns="http://www.w3.org/2000/svg"><path d="M421.981 16.562C410.941 5.519 397.711 0 382.298 0H56.248C40.83 0 27.604 5.521 16.561 16.562 5.52 27.6.001 40.828.001 56.243V382.29c0 15.413 5.518 28.644 16.56 39.683 11.043 11.04 24.272 16.563 39.687 16.563h326.046c15.41 0 28.644-5.523 39.684-16.563 11.043-11.039 16.557-24.27 16.557-39.683V56.243c-.001-15.418-5.514-28.639-16.554-39.681zM157.462 158.025c17.224-16.652 37.924-24.982 62.097-24.982 24.36 0 45.153 8.33 62.381 24.982 17.228 16.655 25.837 36.785 25.837 60.386 0 23.598-8.609 43.729-25.837 60.379-17.228 16.659-38.014 24.988-62.381 24.988-24.172 0-44.87-8.336-62.097-24.988-17.228-16.652-25.841-36.781-25.841-60.379 0-23.601 8.613-43.73 25.841-60.386zm231.403 212.564c0 4.945-1.718 9.083-5.141 12.416-3.433 3.33-7.519 4.996-12.282 4.996h-305.2c-4.948 0-9.091-1.666-12.419-4.996-3.333-3.326-4.998-7.471-4.998-12.416V185.575H89.08c-3.805 11.993-5.708 24.462-5.708 37.402 0 36.553 13.322 67.715 39.969 93.511 26.65 25.786 58.721 38.685 96.217 38.685 24.744 0 47.583-5.903 68.527-17.703 20.937-11.807 37.486-27.839 49.676-48.112 12.183-20.272 18.274-42.4 18.274-66.38 0-12.94-1.91-25.406-5.715-37.402h38.547V370.59h-.002zm0-254.963c0 5.52-1.903 10.184-5.716 13.99-3.805 3.809-8.466 5.711-13.989 5.711h-49.676c-5.517 0-10.185-1.903-13.99-5.711-3.806-3.806-5.708-8.47-5.708-13.99V68.522c0-5.33 1.902-9.945 5.708-13.848 3.806-3.901 8.474-5.854 13.99-5.854h49.676c5.523 0 10.185 1.952 13.989 5.854 3.812 3.903 5.716 8.518 5.716 13.848v47.104z"/></svg><svg viewBox="0 0 97.672 97.672" id="pinterest" xmlns="http://www.w3.org/2000/svg"><path d="M51.125 0C24.469 0 11.029 19.11 11.029 35.047c0 9.649 3.653 18.232 11.487 21.432 1.286.525 2.438.019 2.812-1.403.258-.985.871-3.468 1.144-4.503.376-1.407.229-1.9-.807-3.126-2.259-2.665-3.703-6.115-3.703-11.002 0-14.178 10.608-26.87 27.624-26.87 15.064 0 23.342 9.206 23.342 21.5 0 16.176-7.159 29.828-17.786 29.828-5.87 0-10.262-4.854-8.854-10.807 1.686-7.107 4.951-14.778 4.951-19.907 0-4.592-2.463-8.423-7.565-8.423-6 0-10.819 6.207-10.819 14.521 0 5.296 1.789 8.878 1.789 8.878s-6.141 26.015-7.215 30.571c-2.145 9.072-.322 20.195-.168 21.318.089.666.944.824 1.332.322.555-.723 7.7-9.544 10.129-18.359.687-2.496 3.944-15.42 3.944-15.42 1.95 3.717 7.647 6.992 13.706 6.992 18.034 0 30.271-16.441 30.271-38.45C86.644 15.498 72.547 0 51.125 0z"/></svg><svg viewBox="0 0 511.999 511.999" id="search" xmlns="http://www.w3.org/2000/svg"><path d="M508.874 478.708L360.142 329.976c28.21-34.827 45.191-79.103 45.191-127.309C405.333 90.917 314.416 0 202.666 0S0 90.917 0 202.667s90.917 202.667 202.667 202.667c48.206 0 92.482-16.982 127.309-45.191l148.732 148.732c4.167 4.165 10.919 4.165 15.086 0l15.081-15.082c4.165-4.166 4.165-10.92-.001-15.085zM202.667 362.667c-88.229 0-160-71.771-160-160s71.771-160 160-160 160 71.771 160 160-71.771 160-160 160z"/></svg><svg viewBox="0 0 512 512" id="twitter" xmlns="http://www.w3.org/2000/svg"><path d="M512 97.248c-19.04 8.352-39.328 13.888-60.48 16.576 21.76-12.992 38.368-33.408 46.176-58.016-20.288 12.096-42.688 20.64-66.56 25.408C411.872 60.704 384.416 48 354.464 48c-58.112 0-104.896 47.168-104.896 104.992 0 8.32.704 16.32 2.432 23.936-87.264-4.256-164.48-46.08-216.352-109.792-9.056 15.712-14.368 33.696-14.368 53.056 0 36.352 18.72 68.576 46.624 87.232-16.864-.32-33.408-5.216-47.424-12.928v1.152c0 51.008 36.384 93.376 84.096 103.136-8.544 2.336-17.856 3.456-27.52 3.456-6.72 0-13.504-.384-19.872-1.792 13.6 41.568 52.192 72.128 98.08 73.12-35.712 27.936-81.056 44.768-130.144 44.768-8.608 0-16.864-.384-25.12-1.44C46.496 446.88 101.6 464 161.024 464c193.152 0 298.752-160 298.752-298.688 0-4.64-.16-9.12-.384-13.568 20.832-14.784 38.336-33.248 52.608-54.496z"/></svg></svg>